<svg xmlns="http://www.w3.org/2000/svg" width="1200" height="630" viewBox="0 0 1200 630">
  <defs>
    <linearGradient id="bg" x1="0" y1="0" x2="1" y2="1">
      <stop offset="0%" stop-color="#0d1b2a"/>
      <stop offset="100%" stop-color="#1a2f4a"/>
    </linearGradient>
    <linearGradient id="cardGrad" x1="0" y1="0" x2="0" y2="1">
      <stop offset="0%" stop-color="#1e3a5f"/>
      <stop offset="100%" stop-color="#152c47"/>
    </linearGradient>
  </defs>

  <!-- Background -->
  <rect width="1200" height="630" fill="url(#bg)"/>

  <!-- Subtle grid pattern -->
  <g opacity="0.06" stroke="#ffffff" stroke-width="1">
    <line x1="0" y1="105" x2="1200" y2="105"/>
    <line x1="0" y1="210" x2="1200" y2="210"/>
    <line x1="0" y1="315" x2="1200" y2="315"/>
    <line x1="0" y1="420" x2="1200" y2="420"/>
    <line x1="0" y1="525" x2="1200" y2="525"/>
    <line x1="150" y1="0" x2="150" y2="630"/>
    <line x1="300" y1="0" x2="300" y2="630"/>
    <line x1="450" y1="0" x2="450" y2="630"/>
    <line x1="600" y1="0" x2="600" y2="630"/>
    <line x1="750" y1="0" x2="750" y2="630"/>
    <line x1="900" y1="0" x2="900" y2="630"/>
    <line x1="1050" y1="0" x2="1050" y2="630"/>
  </g>

  <!-- Decorative glow circles -->
  <circle cx="1050" cy="80" r="200" fill="#1a56db" opacity="0.12"/>
  <circle cx="150" cy="550" r="150" fill="#5d5fef" opacity="0.10"/>

  <!-- Left: text content -->
  <g transform="translate(96, 0)">
    <!-- Live badge -->
    <rect x="0" y="180" width="148" height="32" rx="16" fill="#1a56db" opacity="0.25"/>
    <circle cx="18" cy="196" r="5" fill="#10b981"/>
    <text x="30" y="201" font-family="system-ui, -apple-system, sans-serif" font-size="13" font-weight="600" fill="#6ee7b7" letter-spacing="1">LIVE POLLS</text>

    <!-- Headline -->
    <text x="0" y="268" font-family="system-ui, -apple-system, sans-serif" font-size="64" font-weight="800" fill="#ffffff">Create and share</text>
    <text x="0" y="344" font-family="system-ui, -apple-system, sans-serif" font-size="64" font-weight="800" fill="#1a56db">every kind of poll</text>

    <!-- Sub-headline -->
    <text x="0" y="400" font-family="system-ui, -apple-system, sans-serif" font-size="22" fill="#94a3b8">Standard · Location · Schedule · Ranking · Sandbox</text>

    <!-- App name -->
    <text x="0" y="492" font-family="system-ui, -apple-system, sans-serif" font-size="28" font-weight="700" fill="#ffffff">0815Poll</text>
    <text x="0" y="524" font-family="system-ui, -apple-system, sans-serif" font-size="16" fill="#64748b">0815poll.vercel.app</text>
  </g>

  <!-- Right: poll card mockup -->
  <g transform="translate(730, 140)">
    <!-- Card shadow -->
    <rect x="4" y="4" width="380" height="340" rx="20" fill="#000000" opacity="0.3"/>
    <!-- Card background -->
    <rect width="380" height="340" rx="20" fill="url(#cardGrad)" stroke="#1e3a5f" stroke-width="1.5"/>

    <!-- Card header -->
    <rect width="380" height="60" rx="20" fill="#1a56db"/>
    <rect y="40" width="380" height="20" fill="#1a56db"/>
    <text x="20" y="30" font-family="system-ui, -apple-system, sans-serif" font-size="15" font-weight="600" fill="#ffffff">Which city should we visit?</text>
    <text x="20" y="52" font-family="system-ui, -apple-system, sans-serif" font-size="11" fill="#93c5fd">47 votes · closes in 2 hours</text>

    <!-- Option 1 (winning) -->
    <rect x="20" y="80" width="340" height="52" rx="10" fill="#1e3a5f"/>
    <rect x="20" y="80" width="238" height="52" rx="10" fill="#1d4ed8" opacity="0.6"/>
    <text x="36" y="112" font-family="system-ui, -apple-system, sans-serif" font-size="14" font-weight="600" fill="#ffffff">Tokyo</text>
    <text x="344" y="112" font-family="system-ui, -apple-system, sans-serif" font-size="13" font-weight="700" fill="#93c5fd" text-anchor="end">70%</text>

    <!-- Option 2 -->
    <rect x="20" y="144" width="340" height="52" rx="10" fill="#1e3a5f"/>
    <rect x="20" y="144" width="119" height="52" rx="10" fill="#1e40af" opacity="0.5"/>
    <text x="36" y="176" font-family="system-ui, -apple-system, sans-serif" font-size="14" font-weight="600" fill="#ffffff">Paris</text>
    <text x="344" y="176" font-family="system-ui, -apple-system, sans-serif" font-size="13" fill="#64748b" text-anchor="end">35%</text>

    <!-- Option 3 -->
    <rect x="20" y="208" width="340" height="52" rx="10" fill="#1e3a5f"/>
    <rect x="20" y="208" width="68" height="52" rx="10" fill="#1e40af" opacity="0.3"/>
    <text x="36" y="240" font-family="system-ui, -apple-system, sans-serif" font-size="14" font-weight="600" fill="#ffffff">Berlin</text>
    <text x="344" y="240" font-family="system-ui, -apple-system, sans-serif" font-size="13" fill="#64748b" text-anchor="end">20%</text>

    <!-- Vote button -->
    <rect x="20" y="274" width="340" height="48" rx="10" fill="#1a56db"/>
    <text x="190" y="304" font-family="system-ui, -apple-system, sans-serif" font-size="15" font-weight="700" fill="#ffffff" text-anchor="middle">Vote Now</text>
  </g>
</svg>
